<svg id="Livello_1" data-name="Livello 1" xmlns="http://www.w3.org/2000/svg" viewBox="0 0 1702.64 752.15"><defs><style>.cls-1,.cls-10,.cls-11,.cls-12,.cls-9{fill:#0b72b5;}.cls-1,.cls-5,.cls-6{stroke:#fff;}.cls-1,.cls-2,.cls-3,.cls-4,.cls-5,.cls-6{stroke-miterlimit:10;}.cls-2,.cls-3,.cls-4{fill:#fff;}.cls-2{stroke:#054c72;}.cls-3,.cls-4{stroke:#1a171b;}.cls-3,.cls-5{opacity:0.35;}.cls-4{opacity:0.2;}.cls-5{fill:none;stroke-width:25px;}.cls-6{font-size:156.85px;fill:#1a171b;font-family:Montserrat-Bold, Montserrat;font-weight:700;}.cls-7{letter-spacing:-0.01em;}.cls-8{letter-spacing:0em;}.cls-9{letter-spacing:-0.01em;}.cls-11{letter-spacing:0.01em;}.cls-12{letter-spacing:0em;}</style></defs><title>logonewportal</title><circle class="cls-1" cx="376.08" cy="376.08" r="375.58"/><rect class="cls-2" x="194.5" y="201.82" width="363.15" height="35" rx="12" ry="12"/><path class="cls-3" d="M420.33,76.77,226.75,177.06l11.45,36.33H601.51l10.94-36.33ZM298.7,176.33l121.38-64.4,121.38,64.4Z" transform="translate(-43.86 -39.14)"/><path class="cls-4" d="M74.85,434.08c7.28,184.32,159,331.53,345.09,331.53S757.74,618.4,765,434.08Z" transform="translate(-43.86 -39.14)"/><rect class="cls-2" x="497.81" y="270.94" width="40" height="274" rx="20" ry="20"/><rect class="cls-2" x="214.34" y="270.94" width="40" height="274" rx="20" ry="20"/><rect class="cls-2" x="285.21" y="270.94" width="40" height="274" rx="20" ry="20"/><rect class="cls-2" x="426.94" y="270.94" width="40" height="274" rx="20" ry="20"/><line class="cls-5" x1="194.5" y1="590.94" x2="556.59" y2="590.94"/><line class="cls-5" x1="160.48" y1="625.57" x2="591.27" y2="625.57"/><text class="cls-6" transform="translate(785.5 394.94)">N<tspan class="cls-7" x="126.74" y="0">e</tspan><tspan class="cls-8" x="224.14" y="0">w</tspan><tspan class="cls-9" x="371.11" y="0">P</tspan><tspan class="cls-10" x="484.2" y="0">o</tspan><tspan class="cls-11" x="586.94" y="0">r</tspan><tspan class="cls-12" x="656.9" y="0">taL</tspan></text></svg>